<svg width="40" height="40" viewBox="0 0 40 40" fill="none" xmlns="http://www.w3.org/2000/svg">
<path d="M33.7778 27.963C33.7778 34.304 24.4495 37.037 23.2222 37.037C21.9949 37.037 30.0741 33.5633 30.0741 27.2222C30.0741 24.3707 29.701 19.4981 29.3334 17.037C28.8835 14.0254 31.6209 14.2593 32.2963 14.2593C33.2179 14.6931 33.4147 15.1559 33.7778 17.037C34.1482 20 33.7778 24.8164 33.7778 27.963Z" fill="#B96313"/>
<path d="M15.8665 22.3018C16.3935 19.9192 18.3546 18.1207 20.7738 17.8013C23.9648 17.3799 26.8892 19.6356 27.2921 22.829L28.1601 29.7097C28.6879 33.8938 25.4265 37.5926 21.2092 37.5926C16.7299 37.5926 13.4012 33.447 14.3686 29.0734L15.8665 22.3018Z" fill="#EC801C"/>
<ellipse cx="7.3194" cy="5.27364" rx="7.3194" ry="5.27364" transform="matrix(0.0350893 -0.999384 0.999388 0.0349935 15.4082 34.9894)" fill="#FEE187"/>
<ellipse cx="14.1492" cy="34.4444" rx="4.63068" ry="5.18518" fill="#EC801C"/>
<ellipse cx="24.5185" cy="34.4444" rx="4.62963" ry="5.18518" fill="#EC801C"/>
<ellipse cx="24.5239" cy="34.8148" rx="4.63068" ry="5.18518" fill="#FEE187"/>
<ellipse cx="13.4102" cy="34.8148" rx="4.63068" ry="5.18518" fill="#FEE187"/>
<path d="M25.2148 22.2611C24.8256 21.2845 25.1654 20.1687 26.0329 19.5747C27.0219 18.8975 28.3685 19.1155 29.0935 20.0702L35.6912 28.7583C36.6709 30.0484 36.5932 31.8531 35.5062 33.054C34.9699 33.6465 34.2403 34.029 33.4478 34.133L33.2134 34.1638C31.3938 34.4027 29.644 33.3763 28.9646 31.6715L25.2148 22.2611Z" fill="#EC801C"/>
<path d="M14.3535 19.842C15.31 19.4059 16.441 19.691 17.0766 20.5282C17.8013 21.4829 17.6493 22.8382 16.7311 23.6085L8.37169 30.621C7.13093 31.6618 5.32475 31.672 4.07214 30.6452C3.4539 30.1384 3.03613 29.4282 2.89354 28.6417L2.85136 28.4091C2.52409 26.6038 3.46388 24.8069 5.13335 24.0457L14.3535 19.842Z" fill="#EC801C"/>
<ellipse cx="33.0933" cy="31.5503" rx="2.93298" ry="3.80784" transform="rotate(54.3921 33.0933 31.5503)" fill="#FEE187"/>
<ellipse cx="5.62108" cy="28.1388" rx="2.93298" ry="3.80784" transform="rotate(143.569 5.62108 28.1388)" fill="#FEE187"/>
<ellipse cx="8.70558" cy="7.2223" rx="8.70558" ry="7.2223" transform="matrix(0.976097 -0.217335 0.217428 0.976076 9.89093 7.11739)" fill="#EC801C"/>
<ellipse cx="7.07515" cy="5.86967" rx="7.07515" ry="5.86967" transform="matrix(0.976097 -0.217335 0.217428 0.976076 12.1111 9.37164)" fill="#FEE187"/>
<path d="M11.725 13.3333C11.725 15.5935 10.198 17.0185 8.77955 17.0185C7.36114 17.0185 5.83411 15.5935 5.83411 13.3333C5.83411 11.0731 7.36114 9.64815 8.77955 9.64815C10.198 9.64815 11.725 11.0731 11.725 13.3333Z" fill="#FEE187" stroke="#EC801C" stroke-width="3"/>
<path d="M32.8533 5.66001C34.2669 7.91279 33.6787 10.1486 32.4556 10.9157C31.2325 11.6829 28.9631 11.2394 27.5495 8.98662C26.1359 6.73384 26.7241 4.49802 27.9472 3.73089C29.1703 2.96376 31.4397 3.40723 32.8533 5.66001Z" fill="#FEE187" stroke="#EC801C" stroke-width="3"/>
</svg>
