<svg width="40" height="40" viewBox="0 0 40 40" fill="none" xmlns="http://www.w3.org/2000/svg">
<path d="M30 28L34 24V36L30 40V28Z" fill="#FFCA05"/>
<rect x="6" y="28" width="24" height="12" fill="#FEE187"/>
<path d="M10 24H34L30 28H6L10 24Z" fill="#FFCA05"/>
<ellipse cx="15.8" cy="24.4" rx="3" ry="0.8" fill="#FEE187"/>
<path d="M12.8 23C12.8 22.4477 13.2478 22 13.8 22H17.8C18.3523 22 18.8 22.4477 18.8 23V24.4H12.8V23Z" fill="#FEE187"/>
<ellipse cx="15.8" cy="22.2" rx="3" ry="1" fill="#FFCA05"/>
<ellipse cx="13" cy="26.8" rx="3" ry="0.8" fill="#FEE187"/>
<path d="M10 25.4C10 24.8477 10.4477 24.4 11 24.4H15C15.5523 24.4 16 24.8477 16 25.4V26.8H10V25.4Z" fill="#FEE187"/>
<ellipse cx="13" cy="24.6" rx="3" ry="1" fill="#FFCA05"/>
<ellipse cx="26.6" cy="24.4" rx="3" ry="0.8" fill="#FEE187"/>
<path d="M23.6 23C23.6 22.4477 24.0477 22 24.6 22H28.6C29.1523 22 29.6 22.4477 29.6 23V24.4H23.6V23Z" fill="#FEE187"/>
<ellipse cx="26.6" cy="22.2" rx="3" ry="1" fill="#FFCA05"/>
<ellipse cx="23.4" cy="26.8" rx="3" ry="0.8" fill="#FEE187"/>
<path d="M20.4 25.4C20.4 24.8477 20.8477 24.4 21.4 24.4H25.4C25.9523 24.4 26.4 24.8477 26.4 25.4V26.8H20.4V25.4Z" fill="#FEE187"/>
<ellipse cx="23.4" cy="24.6" rx="3" ry="1" fill="#FFCA05"/>
<g clip-path="url(#clip0_2009_355)">
<rect x="12.4" y="4.8" width="14.8" height="7.2" fill="white"/>
<path d="M25.3397 6.08984C25.2117 6.08984 25.0843 6.11569 24.9815 6.27138C24.7255 6.608 24.0105 8.57846 24.0357 8.96677C24.0357 9.09723 24.1126 9.22584 24.2917 9.22584C24.4708 9.22584 24.5981 9.09723 24.7003 8.91446C24.9058 8.55261 25.5446 6.78954 25.5692 6.34892C25.5692 6.24492 25.5446 6.08984 25.3397 6.08984Z" fill="#EC1C24"/>
<path d="M24.864 0H15.136C13.4111 0 12 1.41108 12 3.13477V12.8658C12 14.5889 13.4111 16 15.136 16H24.8646C26.5889 16 28 14.5889 28 12.8652V3.13477C28 1.41108 26.5889 0 24.864 0ZM14.0917 10.4443C13.6062 10.4443 13.1717 10.2111 13.1717 9.64123C13.1465 8.62954 14.1422 6.29662 14.6289 5.54523C14.8585 5.18215 15.1145 5.00062 15.5483 5.00062C15.9582 5.00062 16.0603 5.20862 16.0338 5.44185C16.0338 6.11569 14.9612 8.16369 14.6031 8.96677C15.4462 8.83692 15.6511 9.12246 15.6246 9.43385C15.5489 10.2892 14.7815 10.4702 14.0917 10.4443ZM17.3385 8.18954C17.288 8.34523 17.1852 8.65662 17.1083 8.99385C17.3902 8.94154 17.5938 8.88985 17.9514 8.88985C18.336 8.88985 18.6166 9.07077 18.6166 9.408C18.6166 10.2382 17.696 10.4708 17.0831 10.4708C16.3926 10.4708 15.8049 10.0825 15.8049 9.33046C15.8049 8.42277 16.2646 7.07508 16.7249 6.19323C17.2615 5.07877 17.8246 4.92308 18.7951 4.92308C19.2049 4.92308 19.7157 5.13108 19.7157 5.52C19.7157 6.09046 19.2295 6.29785 18.7705 6.32369C18.5655 6.34954 18.2585 6.34954 18.0794 6.34954C18.0794 6.34954 17.9268 6.58277 17.7735 6.99754C18.6166 6.89415 19 7.07569 18.8462 7.59446C18.6418 8.26708 18.0542 8.31877 17.3385 8.18954ZM22.5526 8.26708C22.2966 9.48492 21.4542 10.4702 20.2271 10.4702C19.3834 10.4702 18.8726 10.0037 18.8726 9.14831C18.8726 8.52677 19.1791 7.568 19.4086 6.99692C19.9206 5.80492 20.4572 4.95015 21.8105 4.95015C22.6302 4.95015 23.2689 5.26092 23.1662 6.03938C23.0898 6.60862 22.8086 6.92 22.3231 6.97169C22.1692 6.97169 21.5822 6.97169 21.7865 6.40185C21.8375 6.22031 21.8886 6.064 21.5822 6.064C21.3514 6.064 21.1988 6.22031 21.096 6.376C20.84 6.73908 20.3034 8.16431 20.2271 8.73415C20.1502 9.14892 20.3286 9.22646 20.5083 9.22646C20.8148 9.22646 21.1471 8.89046 21.2751 8.37108C21.2751 8.37108 20.6874 8.34585 20.84 7.85292C20.9938 7.33477 21.3003 7.23077 21.7865 7.20492C22.7317 7.17846 22.6302 7.87815 22.5526 8.26708ZM26.7194 7.07446C26.5662 7.80062 26.2338 8.656 25.9028 9.27754C25.3138 10.3403 24.624 10.4702 24.0357 10.4702C23.4222 10.4702 22.7323 10.2375 22.7323 9.27754C22.7323 8.60369 23.0135 7.64554 23.2695 7.02277C23.7034 5.88185 24.1378 4.94954 25.5175 4.97538C27.1286 4.97538 26.8474 6.45169 26.7194 7.07446Z" fill="#EC1C24"/>
</g>
<defs>
<clipPath id="clip0_2009_355">
<rect width="16" height="16" fill="white" transform="translate(12)"/>
</clipPath>
</defs>
</svg>
