<svg width="41" height="41" viewBox="0 0 41 41" fill="none" xmlns="http://www.w3.org/2000/svg">
<path d="M0.792464 17.2418C0.958061 16.7224 1.22799 16.2424 1.58569 15.831L2.34142 14.9619C2.62169 14.6396 3.02785 14.4545 3.45497 14.4545C3.80671 14.4545 4.14688 14.5802 4.41418 14.8088L5.40078 15.6527C5.71993 15.9257 5.95519 16.4805 5.56522 16.6364C5.27759 16.7513 4 18.6364 4 19.3636C4 20.0568 4.73468 21.1056 7.56664 22.5951C7.85085 22.7446 8.31003 22.8508 8.62994 22.8786C10.0884 23.0053 10.8725 21.6476 10.7719 20.1871C10.699 19.1283 10.7183 18.0665 10.7826 16.6364L11.3308 12.9114C11.4288 12.2449 11.594 11.59 11.8238 10.9567L12.878 8.05104C13.2183 7.1132 13.697 6.23156 14.2982 5.43541L14.9399 4.5857C15.6389 3.65994 16.5233 2.89004 17.5365 2.3251C18.2475 1.92868 19.0126 1.63837 19.8076 1.4634L21.7863 1.02791C21.8698 1.00951 21.9564 1.00906 22.0401 1.02657C22.4203 1.10607 22.6282 1.51817 22.4661 1.87118L20.8696 5.34837C20.754 5.60016 20.6681 5.86449 20.6088 6.13512C20.1776 8.10251 19.8585 8.80555 20.3478 11.3636C20.6323 12.8508 21.0308 13.8067 21.5823 14.7172C22.5987 16.3948 24.216 17.7257 26.0803 18.3356C26.2395 18.3876 26.4021 18.4348 26.5709 18.4763C27.5011 18.705 28.4994 18.6099 29.3614 18.1921C29.9913 17.8867 30.4633 17.4879 30.9053 16.9074C31.4669 16.1697 31.7633 15.2694 31.9564 14.3626C32.4535 12.0291 32.5163 10.9554 31.8261 10.8182C31.0098 10.6133 30.692 10.6201 30.532 10.7226C29.993 11.0678 29.8526 10.6996 30.295 10.237C30.3863 10.1416 30.4467 10.0216 30.4807 9.89398C30.7335 8.94529 31.2982 8.74499 32.6956 8.81818C34.6496 8.87785 35.2505 10.2181 36.1739 13C36.9129 15.001 37.4003 16.2563 37.7822 17.531C38.5114 19.9649 39.8207 20.0799 40 17.5455V31C40 36.5228 35.5228 41 30 41H10C4.47715 41 0 36.5228 0 31V21.2036C0 20.2253 0.151272 19.2528 0.448455 18.3208L0.792464 17.2418Z" fill="#EC1C24"/>
<path d="M0.921204 29.6916C1.22784 29.4982 1.47089 29.2189 1.62017 28.8885L1.6604 28.7995C2.06263 27.9093 3.11471 27.5193 4 27.9322C5.01319 28.5388 5.50049 29.0039 5.94735 29.7218C5.97601 29.7678 5.78771 30.0668 5.73913 30.0909C5.35363 30.2823 4.73366 29.5372 4 30.8182C3.371 31.9164 4.67289 36.0002 7.8335 36.6354C8.96267 36.8623 10.1895 36.8218 11.2764 36.441C13.5477 35.6453 15.6356 33.0829 15.4783 33.1818C15.7112 32.987 15.2543 28.3419 14.9565 27.1818C14.6264 25.9019 14.4466 25.2153 14.3234 24.7578C14.1708 24.1915 14.0566 23.6157 13.9963 23.0323L13.5086 18.3165C13.4307 17.5625 13.4387 16.8021 13.5325 16.0499L13.7924 13.9667C13.8726 13.3239 14.0174 12.6908 14.2246 12.077L14.69 10.6986C14.8652 10.1795 15.1596 9.7086 15.5494 9.32366L17.9812 6.92256C18.0394 6.86518 18.1332 6.86653 18.1896 6.92554C18.2324 6.97019 18.2423 7.0371 18.2146 7.09238C17.3643 8.79448 16.7403 10.2247 16.6957 14.0909C16.7734 16.0964 17.0247 17.5306 17.6578 19.0485C18.4967 21.0597 19.7565 23.0195 21.2174 24.6364C22.6993 26.2765 25.2125 27.0272 27.4198 27.1448C27.5472 27.1516 27.6798 27.1576 27.8188 27.1627C28.2863 27.1802 28.7593 27.1651 29.2079 27.0323C30.0688 26.7775 30.8628 26.2948 31.5464 25.773C32.5939 24.9735 33.3597 23.8536 33.9039 22.6534C34.3073 21.7636 34.5195 20.9456 34.087 19.9091C33.8552 19.3537 33.7224 19.0159 33.5907 18.7963C32.981 17.7795 32.2166 17.7725 33.2452 17.1829C33.3455 17.1254 33.4521 17.0645 33.5652 17C34.1932 16.7032 34.7769 16.9278 35.2466 17.2964C36.1549 18.0092 36.4361 19.221 36.5289 20.3719C36.6146 21.4354 36.6602 22.4151 36.6956 22.8182C36.7367 23.2849 36.8942 24.7613 37.4223 26.6385C37.7262 27.7189 39.8532 29.5325 40 28.4198V31C40 36.5229 35.5228 41 30 41H6.91407C3.09553 41 0 37.9045 0 34.0859V31.3377C0 30.6748 0.340046 30.0582 0.900713 29.7045L0.921204 29.6916Z" fill="#EC801C"/>
<path d="M0.478256 20.2727C1.6126 15.181 3.09706 12.2674 6.08696 16.4545C5.47425 16.4242 2.95652 18.8182 4.52174 20.6364C6.08696 22.4545 11.1002 24.6125 10.7826 20.2727C10.465 15.933 11.6604 0.224733 22.7826 1.18181C14.2853 15.7843 29.8843 23.9192 31.8261 14.8182C32.8775 10.7233 32.3845 9.99512 29.913 11C30.3884 9.7315 30.6465 9.00729 31.8261 8.81818C34.4952 8.83136 35.1266 9.95098 36 12.2727C39.0609 22.3091 38.7391 24.9848 38.7391 22.5" stroke="#EC1C24"/>
<path d="M0.478256 31.5C1.6126 26.4082 3.27097 25.9457 6.26087 30.1328C5.64816 30.1025 2.24935 29.3249 4.69565 34.3146C7.14195 39.3044 15.5068 35.5702 15.6522 32.0909C15.7976 28.6116 9.14556 11.9197 18.2609 6.81818C13.7037 16.2149 20 26.6364 26.6087 27.1818C33.2174 27.7273 37.116 19.0366 32 18.0909C33.8163 15.5353 36.3859 17.668 36.3478 18.8182C36.5689 23.736 37.0487 28.5462 40 28.6364" stroke="#EC801C"/>
</svg>
