<svg width="40" height="40" viewBox="0 0 40 40" fill="none" xmlns="http://www.w3.org/2000/svg">
<path fill-rule="evenodd" clip-rule="evenodd" d="M40 20.7958C39.1171 19.3589 38.0477 18.0179 36.8043 16.8018C32.8151 12.9003 27.5109 10.7516 21.8692 10.7516C16.2274 10.7516 10.9233 12.9003 6.93405 16.8018C2.94473 20.7033 0.747681 25.8907 0.747681 31.4083C0.747681 33.9444 1.21185 36.4107 2.10086 38.7145C3.08903 39.2723 4.18154 39.6668 5.34183 39.8616C4.59251 38.4644 4.03359 36.9776 3.67928 35.4317C5.41322 35.7706 7.15847 36.0599 8.91097 36.3025C8.9983 37.5378 9.11764 38.7709 9.27043 40H11.7692C11.6235 38.875 11.5059 37.7466 11.4179 36.6159C12.976 36.7902 14.5383 36.9271 16.103 37.025C16.166 38.0178 16.2455 39.0096 16.3414 40H18.8301C18.7358 39.0507 18.657 38.1 18.5936 37.1485C19.7589 37.1911 20.9246 37.2135 22.0897 37.2135C23.1146 37.2135 24.1398 37.1951 25.1649 37.1621C25.1019 38.109 25.0235 39.0552 24.9299 40H27.4186C27.5135 39.0178 27.5923 38.0341 27.6548 37.0496C29.2583 36.9562 30.8598 36.8228 32.4567 36.6494C32.377 37.6917 32.2723 38.7321 32.1436 39.7697C33.0659 39.5683 33.9406 39.2396 34.7484 38.8029C34.8343 37.9846 34.9056 37.1647 34.9626 36.344C36.0109 36.2023 37.0565 36.0434 38.0987 35.8673C38.6936 35.0475 39.1671 34.134 39.4928 33.153C38.0326 33.4299 36.5648 33.6723 35.0912 33.8791C35.127 32.8183 35.139 31.757 35.1261 30.6959C35.1187 30.0938 35.102 29.492 35.0788 28.8904C36.7272 29.1211 38.3685 29.3963 40 29.7146V27.2439C38.3224 26.9258 36.6349 26.6524 34.9406 26.4241C34.832 24.9611 34.6762 23.5017 34.4753 22.0481C35.7451 22.2721 37.0087 22.5298 38.2635 22.8221C38.2753 22.8249 38.2871 22.8277 38.2989 22.8305C38.3107 22.8333 38.3225 22.8362 38.3343 22.8389C39.075 24.196 39.6337 25.6395 40 27.1402V20.7958ZM27.657 25.7231C29.2507 25.8155 30.8424 25.9475 32.4298 26.1191C32.308 24.6229 32.1369 23.1304 31.9151 21.645C30.3665 21.4293 28.8107 21.2635 27.251 21.1495C27.425 22.6706 27.5605 24.1959 27.657 25.7231ZM31.4914 19.141C31.2501 17.8591 30.9713 16.5842 30.6555 15.3181C29.2116 14.5616 27.6716 13.9978 26.0694 13.6387C26.4065 15.3158 26.6952 17.0032 26.9363 18.6976C28.4588 18.7986 29.9783 18.9463 31.4914 19.141ZM21.8692 13.1759C21.3412 13.1759 20.8167 13.1985 20.2964 13.2407C19.9223 15.0104 19.6018 16.7924 19.338 18.583C20.3836 18.5448 21.4298 18.5284 22.4755 18.5347C23.1224 18.5385 23.7692 18.5517 24.4159 18.5725C24.1521 16.7859 23.8318 15.0079 23.4582 13.2421C22.9325 13.199 22.4027 13.1759 21.8692 13.1759ZM22.4605 20.9591C21.3116 20.9529 20.1622 20.9759 19.0137 21.0248C18.832 22.5547 18.6901 24.0892 18.5891 25.6259C19.7622 25.5826 20.9357 25.56 22.1085 25.56C23.1277 25.56 24.1475 25.5783 25.1669 25.611C25.0654 24.0745 24.9229 22.5401 24.7405 21.0105C23.9808 20.9817 23.2206 20.9636 22.4605 20.9591ZM17.6859 13.6347C16.1189 13.9844 14.6117 14.5309 13.1949 15.2609C12.8734 16.5557 12.5907 17.8598 12.347 19.171C13.8315 18.9753 15.3223 18.8253 16.816 18.7197C17.0576 17.0166 17.3473 15.3204 17.6859 13.6347ZM16.5023 21.1741C14.9727 21.2927 13.4471 21.4618 11.9288 21.6781C11.7102 23.1658 11.543 24.6605 11.4248 26.1591C12.9791 25.985 14.5377 25.8481 16.0986 25.75C16.1941 24.2219 16.3289 22.6959 16.5023 21.1741ZM6.56632 22.6484L5.40225 22.8426C4.629 24.2599 4.05361 25.7713 3.68934 27.3437C5.42089 27.0052 7.16375 26.7158 8.91386 26.4733C9.01889 25.0079 9.17128 23.5458 9.36905 22.0895C8.45257 22.2542 7.53931 22.4356 6.63068 22.6361L6.56632 22.6484ZM3.29026 29.8998C3.24876 30.3989 3.22657 30.902 3.22657 31.4083C3.22657 31.9011 3.24744 32.3908 3.28672 32.8768C5.10605 33.2506 6.93842 33.5708 8.77979 33.8354C8.74176 32.7472 8.72831 31.6581 8.74167 30.5694C8.74836 30.0262 8.76337 29.4833 8.78284 28.9405C6.94156 29.2054 5.10944 29.5257 3.29026 29.8998ZM7.31622 20.0116C8.12808 19.847 8.94307 19.6968 9.76046 19.5594C9.89857 18.7627 10.0491 17.968 10.2151 17.1763C9.68521 17.593 9.17458 18.0391 8.68689 18.516C8.19887 18.9932 7.74253 19.493 7.31622 20.0116ZM11.2744 28.6154C11.2466 29.2761 11.2285 29.9373 11.2204 30.5985C11.2059 31.7859 11.2249 32.9738 11.2734 34.1605C12.8387 34.3427 14.409 34.4852 15.9815 34.5883C15.9424 33.5091 15.9211 32.4295 15.9211 31.3504C15.9211 30.2961 15.9417 29.2414 15.979 28.1869C14.4077 28.2903 12.8385 28.4329 11.2744 28.6154ZM22.0898 34.7893C23.157 34.7893 24.2248 34.7692 25.2922 34.7324C25.3355 33.6113 25.3581 32.4898 25.3581 31.3688C25.3581 30.2597 25.3357 29.1499 25.2933 28.0407C24.2317 28.0043 23.1699 27.9844 22.1085 27.9844C20.8938 27.9844 19.6785 28.0084 18.4637 28.056C18.4221 29.154 18.4001 30.2525 18.4001 31.3504C18.4001 32.4728 18.4227 33.5959 18.4662 34.7186C19.6739 34.7656 20.8822 34.7893 22.0898 34.7893ZM27.7763 34.614C29.3866 34.5157 30.9947 34.3758 32.5979 34.1945C32.6438 33.0386 32.6615 31.8816 32.6473 30.7251C32.6386 30.0084 32.6173 29.2919 32.5854 28.5757C30.9867 28.3955 29.3832 28.2564 27.7775 28.1587C27.816 29.2286 27.837 30.299 27.837 31.3687C27.837 32.4503 27.8156 33.5323 27.7763 34.614ZM36.3574 19.9326C35.9497 19.4423 35.5147 18.9691 35.0515 18.5161C34.6015 18.0759 34.1323 17.6614 33.6461 17.2725C33.803 18.0195 33.9469 18.7689 34.0791 19.5204C34.8407 19.6459 35.6002 19.7835 36.3574 19.9326Z" fill="#EC801C"/>
<g clip-path="url(#clip0_2009_463)">
<path d="M15.2103 9.67657C15.2103 12.0474 13.4489 13.9773 11.2851 13.9773H3.92524C2.03114 13.9773 0.490662 12.2892 0.490662 10.2142C0.490662 8.66597 1.33972 7.30048 2.62482 6.7306C3.16003 4.68236 4.90176 3.22552 6.86917 3.22552C8.20361 3.22552 9.43552 3.87598 10.2597 4.96743C6.86917 5.91871 7.35982 9.67657 7.35982 9.67657C7.35982 7.56927 8.74841 5.81135 10.5783 5.4457C10.8093 5.3974 11.0445 5.37587 11.2851 5.37587C13.4489 5.37587 15.2103 7.30573 15.2103 9.67657Z" fill="white"/>
</g>
<g clip-path="url(#clip1_2009_463)">
<path d="M33.5981 31.0715C33.5981 32.845 32.0884 34.2885 30.2337 34.2885H23.9252C22.3017 34.2885 20.9813 33.0258 20.9813 31.4737C20.9813 30.3156 21.7091 29.2942 22.8106 28.8679C23.2694 27.3358 24.7623 26.2461 26.4486 26.2461C27.5924 26.2461 28.6483 26.7327 29.3548 27.5491C26.4486 28.2606 26.8692 31.0715 26.8692 31.0715C26.8692 29.4953 28.0594 28.1803 29.6279 27.9068C29.8258 27.8707 30.0275 27.8546 30.2337 27.8546C32.0884 27.8546 33.5981 29.2981 33.5981 31.0715Z" fill="white"/>
</g>
<path d="M0.747681 23.5478C4.82084 16.3837 7.57686 13.0996 13.458 8.74078L11.215 7.64397C15.9491 6.82414 18.5254 6.92186 22.9907 8.00957C22.6071 9.80722 22.7894 11.0835 23.5514 13.128C22.3806 11.3232 18.7048 9.60362 17.757 10.2032C16.8092 10.8028 15.1573 11.7241 12.8972 13.4937C11.3019 15.4529 9.5568 18.1092 8.22432 21.9026C7.45607 24.755 7.88058 30.6629 8.59815 31.7739C4.72069 29.81 2.96654 28.0641 0.747681 23.5478Z" fill="#FFCA05"/>
<path d="M8.59815 31.6859C5.08243 19.6398 14.1508 10.6172 18.5047 10.1152C22.0641 10.4511 22.4824 11.6265 24.1122 14.2249C23.0115 11.648 22.6217 10.8371 22.9907 7.92159C17.3017 6.73743 14.6222 6.90623 10.2804 7.92159C11.8596 7.94816 12.7148 7.99239 13.6449 8.6528C5.85193 13.9123 3.62432 19.012 0.747681 23.4598C3.44491 28.9475 5.26573 30.1193 8.59815 31.6859Z" stroke="#FFCA05"/>
<defs>
<clipPath id="clip0_2009_463">
<rect width="15.7009" height="17.2028" fill="white"/>
</clipPath>
<clipPath id="clip1_2009_463">
<rect width="13.4579" height="12.8678" fill="white" transform="translate(20.5608 23.8334)"/>
</clipPath>
</defs>
</svg>
