<svg width="40" height="40" viewBox="0 0 40 40" fill="none" xmlns="http://www.w3.org/2000/svg">
<path d="M34.4901 37.6225C35.8705 36.4708 36.4261 34.8696 35.7312 34.0461C35.0362 33.2226 33.3538 33.4887 31.9734 34.6403C30.593 35.792 30.0374 37.3932 30.7323 38.2167C31.4273 39.0402 33.1097 38.7741 34.4901 37.6225Z" fill="#FFCA05"/>
<path d="M29.8934 37.2226L34.8922 33.0521L35.6823 33.9882C35.8251 34.1575 35.8029 34.4098 35.6327 34.5518L31.2502 38.2081C31.08 38.3501 30.8263 38.328 30.6835 38.1588L29.8934 37.2226Z" fill="#FFCA05"/>
<path d="M33.6512 36.6284C35.0316 35.4768 35.5873 33.8756 34.8923 33.0521C34.1973 32.2286 32.5149 32.4946 31.1345 33.6463C29.7542 34.7979 29.1985 36.3991 29.8935 37.2226C30.5884 38.0461 32.2709 37.7801 33.6512 36.6284Z" fill="#FEE187"/>
<path d="M33.1742 31.5211L28.6753 35.2745L30.1434 37.0141L34.6423 33.2606L33.1742 31.5211Z" fill="#E4B401"/>
<path d="M31.7637 34.3918C33.144 33.2402 33.6997 31.639 33.0047 30.8155C32.3097 29.992 30.6273 30.258 29.247 31.4097C27.8666 32.5613 27.3109 34.1625 28.0059 34.986C28.7009 35.8095 30.3833 35.5435 31.7637 34.3918Z" fill="#FFCA05"/>
<path d="M27.167 33.992L32.1658 29.8214L32.9558 30.7576C33.0986 30.9268 33.0764 31.1791 32.9062 31.3211L28.5238 34.9774C28.3536 35.1194 28.0998 35.0974 27.957 34.9281L27.167 33.992Z" fill="#FFCA05"/>
<path d="M30.9248 33.3978C32.3052 32.2461 32.8608 30.645 32.1658 29.8215C31.4709 28.998 29.7885 29.264 28.4081 30.4157C27.0277 31.5673 26.4721 33.1685 27.167 33.992C27.862 34.8155 29.5444 34.5495 30.9248 33.3978Z" fill="#FEE187"/>
<path d="M30.1434 37.0141C30.3103 37.2118 30.7073 37.2038 31.2472 36.9916C31.787 36.7795 32.4255 36.3806 33.022 35.8829C33.6187 35.3852 34.1245 34.8293 34.4284 34.3375C34.7323 33.8457 34.8092 33.4584 34.6423 33.2607L32.3929 35.1374L30.1434 37.0141Z" fill="#E4B401"/>
<path d="M27.6669 33.5749C27.8337 33.7726 28.2044 33.7865 28.6974 33.6135C29.1904 33.4404 29.7653 33.0947 30.2956 32.6522C30.8259 32.2098 31.2682 31.707 31.5252 31.2543C31.7821 30.8016 31.8328 30.4362 31.6659 30.2385L29.6664 31.9067L27.6669 33.5749Z" fill="#EC1C24"/>
<path d="M7.75723 1.90813L3.75818 5.24456L27.6668 33.5749L31.6659 30.2385L7.75723 1.90813Z" fill="#EC1C24"/>
<path d="M10.5814 9.29211C11.9618 8.14045 12.5174 6.53927 11.8225 5.71578C11.1275 4.89228 9.44509 5.15831 8.06471 6.30997C6.68433 7.46163 6.12869 9.06281 6.82366 9.8863C7.51862 10.7098 9.20103 10.4438 10.5814 9.29211Z" fill="#FFCA05"/>
<path d="M5.98474 8.89228L10.9835 4.72172L11.7736 5.65788C11.9164 5.82712 11.8942 6.0794 11.724 6.2214L7.34153 9.87772C7.17136 10.0197 6.91759 9.99764 6.77477 9.8284L5.98474 8.89228Z" fill="#FFCA05"/>
<path d="M9.74254 8.29807C11.1229 7.14641 11.6786 5.54523 10.9836 4.72173C10.2886 3.89824 8.60623 4.16427 7.22584 5.31593C5.84546 6.46759 5.28982 8.06877 5.98479 8.89226C6.67976 9.71576 8.36216 9.44973 9.74254 8.29807Z" fill="#FEE187"/>
<path d="M9.26552 3.19069L4.7666 6.94416L6.23468 8.68375L10.7336 4.93028L9.26552 3.19069Z" fill="#E4B401"/>
<path d="M7.85497 6.06148C9.23535 4.90982 9.79099 3.30864 9.09602 2.48514C8.40106 1.66164 6.71865 1.92767 5.33827 3.07933C3.95789 4.23099 3.40225 5.83217 4.09722 6.65567C4.79218 7.47916 6.47459 7.21314 7.85497 6.06148Z" fill="#FFCA05"/>
<path d="M3.2583 5.6616L8.2571 1.49107L9.04714 2.42721C9.18995 2.59644 9.16775 2.84874 8.99753 2.99074L4.6151 6.64704C4.4449 6.78904 4.19115 6.76696 4.04833 6.59772L3.2583 5.6616Z" fill="#FFCA05"/>
<path d="M7.0161 5.06741C8.39648 3.91575 8.95212 2.31457 8.25716 1.49107C7.56219 0.667579 5.87979 0.933608 4.4994 2.08527C3.11902 3.23693 2.56338 4.83811 3.25835 5.6616C3.95332 6.4851 5.63572 6.21907 7.0161 5.06741Z" fill="#FEE187"/>
<path d="M6.23474 8.68372C6.40161 8.88148 6.79864 8.87336 7.33849 8.66124C7.87833 8.44908 8.51678 8.05028 9.11339 7.55252C9.71 7.0548 10.2159 6.49888 10.5197 6.00712C10.8236 5.51536 10.9006 5.128 10.7337 4.93024L8.48419 6.807L6.23474 8.68372Z" fill="#E4B401"/>
</svg>
