<svg width="40" height="40" viewBox="0 0 40 40" fill="none" xmlns="http://www.w3.org/2000/svg">
<path d="M36.3638 10.1981L12.1214 33.6751L0 21.9366L2.14282 19.8614L12.1214 29.5248L34.221 8.12291L36.3638 10.1981Z" fill="#FFCA05"/>
<g clip-path="url(#clip0_2009_502)">
<path d="M29.589 20.3509C29.589 20.3509 31.81 25.402 29.589 26.4735C27.3681 27.545 26.4164 22.8 26.4164 22.8C26.4164 22.8 24.1955 23.4122 24.5127 25.8613C24.8299 28.3104 25.9404 29.7644 25.1472 30.7592C24.3539 31.7539 23.7987 30.7592 23.2435 28.9223C22.6882 27.0854 20.7053 26.4732 20.7053 26.4732C20.7053 26.4732 21.7365 29.6874 21.9742 31.9836C22.2119 34.2798 21.8559 39.1777 29.3116 39.9428C36.7673 40.7079 40.2549 33.6206 38.4724 29.5345C37.2264 26.678 37.838 23.4119 37.838 23.4119C37.838 23.4119 35.6772 24.3649 35.2998 26.4732C34.9011 28.7006 34.9826 30.606 34.0309 28.9223C33.0789 27.2386 35.379 21.4224 29.589 20.3509Z" fill="#EC1C24"/>
</g>
<path d="M30.2001 29.2308C27.4388 29.2308 25.2 31.3834 25.2 34.0383C25.2 36.693 27.4388 38.8462 30.2001 38.8462C32.9611 38.8462 35.2 36.693 35.2 34.0383C35.2 31.3834 32.9611 29.2308 30.2001 29.2308ZM30.2001 36.4421C28.8193 36.4421 27.6998 35.3659 27.6998 34.0383C27.6998 32.7107 28.8193 31.6346 30.2001 31.6346C31.5809 31.6346 32.7002 32.7107 32.7002 34.0383C32.7002 35.3659 31.5809 36.4421 30.2001 36.4421Z" fill="#EC801C"/>
<g clip-path="url(#clip1_2009_502)">
<path d="M12.8618 0C12.8618 0 15.0827 5.0511 12.8618 6.12261C10.6408 7.19411 9.68914 2.4491 9.68914 2.4491C9.68914 2.4491 7.46821 3.0613 7.78544 5.51041C8.10267 7.95951 9.21313 9.41356 8.4199 10.4083C7.62666 11.4031 7.07143 10.4083 6.5162 8.5714C5.96096 6.7345 3.97803 6.1223 3.97803 6.1223C3.97803 6.1223 5.00927 9.3365 5.24696 11.6327C5.48464 13.9289 5.12859 18.8268 12.5843 19.5919C20.04 20.357 23.5276 13.2697 21.7452 9.1836C20.4992 6.32708 21.1107 3.061 21.1107 3.061C21.1107 3.061 18.9499 4.01399 18.5725 6.1223C18.1739 8.34973 18.2553 10.2551 17.3036 8.5714C16.3516 6.8877 18.6518 1.0715 12.8618 0Z" fill="#EC1C24"/>
</g>
<path d="M13.4001 8.84616C10.6389 8.84616 8.4 10.9988 8.4 13.6537C8.4 16.3084 10.6389 18.4615 13.4001 18.4615C16.1612 18.4615 18.4 16.3084 18.4 13.6537C18.4 10.9988 16.1612 8.84616 13.4001 8.84616ZM13.4001 16.0575C12.0194 16.0575 10.8998 14.9813 10.8998 13.6537C10.8998 12.3261 12.0194 11.2499 13.4001 11.2499C14.7809 11.2499 15.9002 12.3261 15.9002 13.6537C15.9002 14.9813 14.7809 16.0575 13.4001 16.0575Z" fill="#EC801C"/>
<defs>
<clipPath id="clip0_2009_502">
<rect width="20.3636" height="19.6491" fill="white" transform="translate(19.6364 20.3509)"/>
</clipPath>
<clipPath id="clip1_2009_502">
<rect width="20.3636" height="19.6491" fill="white" transform="translate(2.90909)"/>
</clipPath>
</defs>
</svg>
