<svg width="40" height="40" viewBox="0 0 40 40" fill="none" xmlns="http://www.w3.org/2000/svg">
<g clip-path="url(#clip0_2009_481)">
<path d="M39.6 34.4C39.6 36.1641 38.1641 37.6 36.4 37.6H30.4C28.8559 37.6 27.6 36.3439 27.6 34.8C27.6 33.648 28.2922 32.632 29.3398 32.208C29.7762 30.684 31.1961 29.6 32.8 29.6C33.8879 29.6 34.8922 30.084 35.5641 30.8961C32.8 31.6039 33.2 34.4 33.2 34.4C33.2 32.832 34.332 31.524 35.8238 31.2519C36.0121 31.216 36.2039 31.2 36.4 31.2C38.1641 31.2 39.6 32.6359 39.6 34.4Z" fill="white"/>
</g>
<g clip-path="url(#clip1_2009_481)">
<path d="M7.51804 28.7685C7.31075 28.9759 7.03901 29.0796 6.76735 29.0796C6.49569 29.0796 6.22395 28.9759 6.01666 28.7685C5.60199 28.3539 5.60199 27.6817 6.01666 27.2671L8.04445 25.2393C8.45905 24.8246 9.13131 24.8246 9.54591 25.2393C9.96057 25.6539 9.96057 26.3262 9.54591 26.7407L7.51804 28.7685ZM12.942 30.137L9.17604 33.9028C8.96874 34.1101 8.69701 34.2138 8.42534 34.2138C8.15361 34.2138 7.88194 34.1101 7.67458 33.9028C7.25998 33.4882 7.25998 32.8159 7.67458 32.4013L11.4405 28.6354C11.8551 28.2208 12.5273 28.2208 12.942 28.6354C13.3566 29.05 13.3566 29.7223 12.942 30.137ZM16.3381 32.0315C16.7527 32.4462 16.7527 33.1184 16.3381 33.533L14.3103 35.5607C14.103 35.768 13.8313 35.8717 13.5596 35.8717C13.2878 35.8717 13.0162 35.768 12.8089 35.5608C12.3942 35.1461 12.3942 34.4739 12.8089 34.0593L14.8366 32.0316C15.2512 31.6169 15.9235 31.6169 16.3381 32.0315Z" fill="#EC1C24"/>
<path d="M38.0179 3.72977C37.7874 3.49927 37.4637 3.38743 37.1402 3.42656L27.8668 4.54692C25.2521 4.8628 23.1578 5.84949 21.2759 7.65202C19.6451 9.21401 18.3708 11.2103 17.0216 13.3237C16.4025 14.2933 15.7626 15.2952 15.0612 16.2993L12.2903 15.9357C10.5131 15.7025 8.13545 16.769 6.87785 18.3641L5.0086 20.735C4.77226 21.0348 4.71508 21.4384 4.85895 21.792C5.00276 22.1456 5.32547 22.3947 5.70396 22.4444L9.10914 22.8913C9.27318 22.9128 9.44207 22.9232 9.615 22.9232C10.3805 22.9232 11.2196 22.7175 12.0152 22.3599L19.8413 30.186C19.8616 30.2063 19.883 30.2248 19.9044 30.2431C19.5775 31.2952 19.4974 32.3905 19.7387 33.2821L20.6361 36.5972C20.7358 36.9657 21.0258 37.2523 21.3955 37.3476C21.4832 37.3702 21.5722 37.3813 21.6605 37.3813C21.9442 37.3813 22.2205 37.2673 22.423 37.0582L24.5231 34.8892C25.936 33.43 26.6759 30.9315 26.2075 29.2011L25.5219 26.6682C26.5531 25.9366 27.5791 25.276 28.5754 24.6345C30.6532 23.2967 32.6159 22.033 34.1497 20.4163C35.9176 18.553 36.8872 16.4763 37.2007 13.8809L38.3211 4.60762C38.3602 4.28385 38.2484 3.96021 38.0179 3.72977ZM9.38535 20.7867L7.83165 20.5828L8.54465 19.6784C9.34151 18.6679 10.963 17.9029 12.0141 18.0404L13.5678 18.2443L12.8547 19.1486C12.058 20.1592 10.4365 20.924 9.38535 20.7867ZM21.4232 27.5938C21.2333 27.7899 21.056 28.0053 20.8917 28.2346L13.8401 21.1829C14.091 20.9583 14.3209 20.7175 14.5217 20.4628L15.6515 19.0298L22.7968 26.1752L21.4232 27.5938ZM22.9983 33.4126L22.1972 34.24L21.7878 32.7274C21.5107 31.7038 22.0529 29.9949 22.9482 29.0704L23.7493 28.243L24.1587 29.7556C24.4357 30.7792 23.8934 32.4881 22.9983 33.4126ZM35.0934 13.6262C34.5318 18.2746 31.3962 20.2936 27.4263 22.8497C26.4592 23.4725 25.4644 24.114 24.4504 24.827L16.9394 17.3159C17.6107 16.3447 18.2203 15.3908 18.8107 14.4659C21.395 10.4177 23.4362 7.22026 28.1213 6.65417L36.0514 5.69613L35.0934 13.6262ZM24.2791 11.1837C23.4397 12.0231 22.9774 13.1392 22.9774 14.3263C22.9774 15.5134 23.4397 16.6295 24.2791 17.4688C25.1186 18.3083 26.2346 18.7706 27.4217 18.7706C28.6088 18.7706 29.7249 18.3083 30.5643 17.4688C32.2971 15.736 32.2972 12.9166 30.5643 11.1837C28.8315 9.45089 26.0119 9.45089 24.2791 11.1837ZM29.0634 12.6846C29.9685 13.5898 29.9685 15.0628 29.0634 15.9679C28.6248 16.4064 28.0418 16.6479 27.4217 16.6479C26.8016 16.6479 26.2186 16.4064 25.78 15.9679C25.3416 15.5294 25.1001 14.9464 25.1001 14.3262C25.1001 13.7061 25.3416 13.1231 25.78 12.6845C26.2326 12.2319 26.8272 12.0057 27.4217 12.0057C28.0162 12.0058 28.6108 12.232 29.0634 12.6846Z" fill="#FFCA05"/>
</g>
<path d="M15.5 9C15.5 11.2051 13.7051 13 11.5 13H4C2.06982 13 0.5 11.4299 0.5 9.5C0.5 8.06006 1.36523 6.79004 2.6748 6.26001C3.22021 4.35498 4.99512 3 7 3C8.35986 3 9.61523 3.60498 10.4551 4.62012C7 5.50488 7.5 9 7.5 9C7.5 7.04004 8.91504 5.40503 10.7798 5.06494C11.0151 5.02002 11.2549 5 11.5 5C13.7051 5 15.5 6.79492 15.5 9Z" fill="white"/>
<defs>
<clipPath id="clip0_2009_481">
<rect width="12.8" height="12.8" fill="white" transform="translate(27.2 27.2)"/>
</clipPath>
<clipPath id="clip1_2009_481">
<rect width="33.9623" height="33.9623" fill="white" transform="translate(4.57358 3.41887)"/>
</clipPath>
</defs>
</svg>
