<svg width="23" height="23" viewBox="0 0 23 23" fill="none" xmlns="http://www.w3.org/2000/svg">
<path fill-rule="evenodd" clip-rule="evenodd" d="M3.83329 11.5C3.83329 9.46667 4.64102 7.51663 6.07881 6.07885C7.51659 4.64106 9.46663 3.83333 11.5 3.83333C13.5333 3.83333 15.4834 4.64106 16.9212 6.07885C18.3588 7.51663 19.1666 9.46667 19.1666 11.5C19.1666 13.5333 18.3588 15.4834 16.9212 16.9212C15.4834 18.3589 13.5333 19.1667 11.5 19.1667C9.46663 19.1667 7.51659 18.3589 6.07881 16.9212C4.64102 15.4834 3.83329 13.5333 3.83329 11.5ZM11.5 1.91667C6.20708 1.91667 1.91663 6.20712 1.91663 11.5C1.91663 16.7929 6.20708 21.0833 11.5 21.0833C16.7928 21.0833 21.0833 16.7929 21.0833 11.5C21.0833 6.20712 16.7928 1.91667 11.5 1.91667ZM9.55167 14.1297C9.48785 13.884 9.32925 13.6739 9.11063 13.5451C8.89203 13.4162 8.63126 13.3794 8.38552 13.4425C8.13977 13.5057 7.92911 13.6638 7.79974 13.882C7.67036 14.1003 7.63283 14.361 7.69538 14.6069C8.11608 16.2917 9.8545 17.25 11.5 17.25C13.2106 17.25 14.8081 16.2802 15.3045 14.605C15.3612 14.361 15.3202 14.1047 15.1901 13.8906C15.0601 13.6766 14.8514 13.5219 14.6088 13.4598C14.3661 13.3977 14.1089 13.433 13.892 13.5582C13.6751 13.6834 13.5158 13.8885 13.4483 14.1297C13.1991 14.9634 12.305 15.3333 11.5 15.3333C10.695 15.3333 9.80179 14.9644 9.55167 14.1297ZM10.0625 9.58333C10.0625 9.96456 9.91104 10.3303 9.64146 10.5998C9.37185 10.8694 9.0062 11.0208 8.62496 11.0208C8.24372 11.0208 7.87807 10.8694 7.60849 10.5998C7.33891 10.3303 7.18746 9.96456 7.18746 9.58333C7.18746 9.20209 7.33891 8.83645 7.60849 8.56687C7.87807 8.29729 8.24372 8.14583 8.62496 8.14583C9.0062 8.14583 9.37185 8.29729 9.64146 8.56687C9.91104 8.83645 10.0625 9.20209 10.0625 9.58333ZM14.375 11.0208C14.7562 11.0208 15.1219 10.8694 15.3915 10.5998C15.661 10.3303 15.8125 9.96456 15.8125 9.58333C15.8125 9.20209 15.661 8.83645 15.3915 8.56687C15.1219 8.29729 14.7562 8.14583 14.375 8.14583C13.9937 8.14583 13.628 8.29729 13.3585 8.56687C13.0889 8.83645 12.9375 9.20209 12.9375 9.58333C12.9375 9.96456 13.0889 10.3303 13.3585 10.5998C13.628 10.8694 13.9937 11.0208 14.375 11.0208Z" fill="white"/>
</svg>
