<svg width="23" height="23" viewBox="0 0 23 23" fill="none" xmlns="http://www.w3.org/2000/svg">
<g clip-path="url(#clip0_2101_55)">
<path d="M14.375 14.375C13.8457 14.375 13.4167 14.804 13.4167 15.3333V21.0833H1.91668V1.91668H13.4167V7.66668C13.4167 8.19595 13.8457 8.625 14.375 8.625C14.9043 8.625 15.3333 8.19595 15.3333 7.66668V0.958318C15.3333 0.429049 14.9043 0 14.375 0H0.958318C0.429049 0 0 0.429049 0 0.958318V22.0416C0 22.571 0.429049 23 0.958318 23H14.375C14.9043 23 15.3333 22.571 15.3333 22.0417V15.3333C15.3333 14.804 14.9043 14.375 14.375 14.375Z" fill="white"/>
<path d="M22.7827 12.1073C22.7919 12.0962 22.7998 12.0845 22.8084 12.073C22.8185 12.0595 22.8291 12.0462 22.8385 12.032C22.8477 12.0184 22.8556 12.0042 22.8639 11.9901C22.8716 11.9773 22.8796 11.9648 22.8867 11.9516C22.8943 11.9374 22.9008 11.9226 22.9077 11.908C22.9142 11.8943 22.921 11.8808 22.9269 11.8667C22.9327 11.8525 22.9375 11.838 22.9426 11.8237C22.9481 11.8085 22.9539 11.7936 22.9585 11.7782C22.9629 11.7638 22.9661 11.7491 22.9697 11.7346C22.9737 11.7189 22.9781 11.7033 22.9813 11.6872C22.9846 11.6704 22.9866 11.6534 22.9891 11.6365C22.991 11.6225 22.9937 11.6088 22.9951 11.5946C23.0013 11.5317 23.0013 11.4683 22.9951 11.4054C22.9937 11.3912 22.9911 11.3775 22.9891 11.3635C22.9866 11.3465 22.9847 11.3295 22.9813 11.3127C22.9781 11.2966 22.9737 11.2811 22.9697 11.2653C22.9661 11.2508 22.9629 11.2362 22.9585 11.2218C22.9539 11.2063 22.9481 11.1914 22.9426 11.1763C22.9375 11.1619 22.9327 11.1475 22.9269 11.1333C22.9211 11.1192 22.9142 11.1057 22.9077 11.0919C22.9008 11.0773 22.8943 11.0626 22.8867 11.0483C22.8796 11.0351 22.8716 11.0226 22.8639 11.0098C22.8556 10.9958 22.8476 10.9816 22.8385 10.9679C22.829 10.9538 22.8185 10.9405 22.8084 10.9269C22.7998 10.9155 22.7918 10.9038 22.7827 10.8926C22.763 10.8686 22.7421 10.8454 22.7202 10.8234C22.7199 10.8231 22.7195 10.8227 22.7192 10.8224L18.8859 6.98908C18.5117 6.61484 17.9049 6.61484 17.5306 6.98908C17.1564 7.36332 17.1564 7.97013 17.5306 8.34437L19.728 10.5417H11.4999C10.9707 10.5417 10.5416 10.9708 10.5416 11.5C10.5416 12.0293 10.9707 12.4584 11.4999 12.4584H19.728L17.5306 14.6557C17.1564 15.03 17.1564 15.6368 17.5306 16.011C17.9049 16.3853 18.5117 16.3853 18.8859 16.011L22.7192 12.1777C22.7196 12.1773 22.7199 12.177 22.7202 12.1767C22.7421 12.1545 22.763 12.1314 22.7827 12.1073Z" fill="white"/>
</g>
<defs>
<clipPath id="clip0_2101_55">
<rect width="23" height="23" fill="white"/>
</clipPath>
</defs>
</svg>
