<svg width="21" height="20" viewBox="0 0 21 20" fill="none" xmlns="http://www.w3.org/2000/svg">
<path d="M16.6003 19.9999C16.5199 19.9999 16.4391 19.9846 16.3624 19.9534L10.4999 17.563L4.63746 19.9534C4.43575 20.0356 4.20584 20.0078 4.0296 19.88C3.85336 19.7522 3.75595 19.5423 3.77197 19.3256L4.23756 13.0208L0.148852 8.19329C0.00818277 8.02726 -0.0365175 7.8003 0.0307732 7.59349C0.0980638 7.38667 0.267893 7.22929 0.479378 7.17746L6.62958 5.67124L9.96496 0.297342C10.0798 0.112443 10.282 0 10.4999 0C10.7178 0 10.9202 0.112443 11.0349 0.297342L14.3703 5.67124L20.5205 7.17746C20.7321 7.22929 20.9018 7.38667 20.9691 7.59349C21.0364 7.80046 20.9917 8.02726 20.851 8.19329L16.7623 13.0208L17.2279 19.3256C17.2439 19.5425 17.1465 19.7522 16.9701 19.88C16.861 19.9592 16.7312 19.9999 16.6003 19.9999Z" fill="#FFCA05"/>
<path d="M20.5206 7.17747L14.3704 5.67124L11.0351 0.297342C10.9203 0.112443 10.718 0 10.5001 0H10.4999V17.5632L10.5001 17.563L16.3626 19.9534C16.4393 19.9846 16.52 19.9999 16.6003 19.9999C16.7314 19.9999 16.8611 19.9592 16.9703 19.88C17.1465 19.7522 17.2441 19.5423 17.228 19.3256L16.7625 13.0208L20.8512 8.19329C20.9918 8.02711 21.0365 7.8003 20.9692 7.59349C20.902 7.38668 20.7323 7.22929 20.5206 7.17747Z" fill="#EC801C"/>
</svg>
