<svg width="23" height="23" viewBox="0 0 23 23" fill="none" xmlns="http://www.w3.org/2000/svg">
<g clip-path="url(#clip0_2107_372)">
<path d="M15.9153 0H7.12477C3.24526 0 0.100305 3.14495 0.100305 7.02442L0.0601807 15.9756C0.0601807 19.8551 3.20514 23 7.0846 23H15.9153C19.7948 23 22.9397 19.855 22.9397 15.9756V7.02442C22.9398 3.14495 19.7948 0 15.9153 0ZM21.9363 15.9756C21.9363 19.3008 19.2406 21.9965 15.9153 21.9965H7.12477C3.79952 21.9965 1.10383 19.3008 1.10383 15.9756L1.0637 7.02446C1.0637 3.69921 3.75934 1.00352 7.08465 1.00352H15.9153C19.2406 1.00352 21.9363 3.69921 21.9363 7.02446V15.9756Z" fill="white"/>
<path d="M18.5646 10.2055V6.83377C18.5646 4.77211 16.8933 3.10078 14.8316 3.10078H8.23871C6.18096 3.10633 4.51575 4.77602 4.51575 6.83377V10.2055C3.81177 10.5003 3.35305 11.1884 3.35168 11.9516V13.7378C3.35164 14.011 3.57023 14.2341 3.84338 14.2395C4.12048 14.2395 4.34514 14.0149 4.34514 13.7378V11.9516C4.34538 11.4583 4.74544 11.0587 5.23869 11.0589C5.7316 11.0592 6.1311 11.4587 6.13134 11.9516V13.7378V14.1793C6.13087 17.1665 8.55213 19.5885 11.5393 19.5889C14.5265 19.5894 16.9485 17.1682 16.9489 14.181C16.9489 14.1804 16.9489 14.1799 16.9489 14.1793V11.9516C16.9489 11.4583 17.3488 11.0584 17.8421 11.0584C18.3353 11.0584 18.7352 11.4583 18.7352 11.9516V13.7378C18.7352 14.0149 18.9598 14.2395 19.237 14.2395C19.5141 14.2395 19.7387 14.0149 19.7387 13.7378V11.9516C19.7357 11.1859 19.2726 10.4972 18.5646 10.2055ZM17.5611 10.0951C16.632 10.2292 15.9407 11.0228 15.9355 11.9616V14.1994C15.9355 16.6323 13.9631 18.6047 11.5301 18.6047C9.09717 18.6047 7.12484 16.6323 7.12484 14.1994V13.5069V11.9516C7.12108 11.0194 6.44043 10.2281 5.51927 10.0851V6.83377C5.51927 5.33023 6.73517 4.10981 8.23871 4.10426H14.8417C16.3452 4.10981 17.5612 5.33023 17.5611 6.83377V10.0951Z" fill="white"/>
<path d="M8.33895 7.58747C7.88564 7.60365 7.52641 7.97573 7.52612 8.42932C7.52584 8.89486 7.903 9.27249 8.36854 9.27277C8.37874 9.27277 8.38895 9.27258 8.39916 9.27225C8.86442 9.25565 9.22807 8.86499 9.21147 8.39973C9.19486 7.93448 8.80421 7.57082 8.33895 7.58747Z" fill="white"/>
<path d="M14.7011 7.58653C14.2356 7.58098 13.8537 7.95386 13.8482 8.41935C13.8481 8.42269 13.8481 8.42598 13.8481 8.42932C13.8481 8.89096 14.2194 9.26675 14.6811 9.27225C15.1466 9.27781 15.5284 8.90493 15.534 8.43944C15.5395 7.97394 15.1666 7.59204 14.7011 7.58653Z" fill="white"/>
<path d="M13.7678 14.6911C13.4907 14.6911 13.2661 14.9158 13.2661 15.1929C13.2661 15.5309 12.992 15.805 12.6539 15.805C12.3159 15.805 12.0418 15.5309 12.0418 15.1929V11.8312L12.6941 11.1789C12.8909 10.9821 12.8909 10.6631 12.6941 10.4664C12.4974 10.2696 12.1784 10.2696 11.9816 10.4664L11.5401 10.9079L11.0985 10.4965C10.9018 10.2997 10.5828 10.2997 10.386 10.4965C10.1893 10.6932 10.1893 11.0122 10.386 11.209L11.0383 11.8613V15.2129C11.0383 15.551 10.7643 15.825 10.4262 15.825C10.0881 15.825 9.81409 15.551 9.81409 15.2129C9.81409 14.9358 9.58943 14.7111 9.31233 14.7111C9.03837 14.7111 8.81612 14.9308 8.81104 15.2035C8.82007 16.0862 9.53703 16.8001 10.4223 16.8022C10.8384 16.8032 11.2387 16.6437 11.54 16.3569C12.1863 16.972 13.209 16.9468 13.8242 16.3005C14.1086 16.0017 14.2679 15.6054 14.2695 15.1929C14.2696 14.9158 14.0449 14.6911 13.7678 14.6911Z" fill="white"/>
<path d="M8.81067 15.2129C8.81067 15.2097 8.81109 15.2066 8.81114 15.2035C8.81104 15.1966 8.81067 15.1897 8.81067 15.1828V15.2129Z" fill="white"/>
</g>
<defs>
<clipPath id="clip0_2107_372">
<rect width="23" height="23" fill="white"/>
</clipPath>
</defs>
</svg>
