<svg width="20" height="20" viewBox="0 0 20 20" fill="none" xmlns="http://www.w3.org/2000/svg">
<g clip-path="url(#clip0_2143_385)">
<path d="M0 14.5083V20H5.49174L16.4752 9.0166L10.9833 3.52481L0 14.5083ZM4.79202 18.3102L3.37945 18.3104V16.6206H1.68977V15.2079L2.89108 14.0066L5.99333 17.1088L4.79202 18.3102ZM11.4061 5.76911C11.5995 5.76911 11.6963 5.86598 11.6963 6.05949C11.6963 6.14762 11.6656 6.22229 11.6039 6.28402L4.44875 13.4391C4.38711 13.5005 4.31225 13.5314 4.22431 13.5314C4.03085 13.5314 3.93398 13.4344 3.93398 13.241C3.93398 13.1529 3.96478 13.0782 4.02632 13.0165L11.1815 5.8615C11.243 5.79991 11.3178 5.76911 11.4061 5.76911Z" fill="#FFCA05"/>
<path d="M19.5113 3.59057L16.4091 0.501591C16.0747 0.167336 15.6743 0 15.2078 0C14.7323 0 14.3366 0.167336 14.0198 0.501591L11.8284 2.67982L17.3202 8.17152L19.5116 5.9802C19.8372 5.65455 19.9999 5.25852 19.9999 4.79202C19.9997 4.3345 19.8371 3.93394 19.5113 3.59057Z" fill="#EC1C24"/>
</g>
<defs>
<clipPath id="clip0_2143_385">
<rect width="20" height="20" fill="white"/>
</clipPath>
</defs>
</svg>
