<svg width="23" height="23" viewBox="0 0 23 23" fill="none" xmlns="http://www.w3.org/2000/svg">
<g clip-path="url(#clip0_2104_104)">
<path d="M22.2075 7.19666H14.1323V2.64046C14.1323 1.18419 12.9477 0 11.4914 0C10.0356 0 8.85096 1.18419 8.85096 2.64046V7.19666H0.792602C0.416605 7.19666 0.112305 7.50097 0.112305 7.87696V11.6681C0.112305 12.044 0.416605 12.3484 0.792602 12.3484H1.71691L2.28518 21.3795C2.34232 22.2884 3.10015 23 4.01085 23H18.9892C19.8999 23 20.6578 22.2884 20.7149 21.3795L21.2832 12.3484H22.2075C22.5835 12.3484 22.8878 12.044 22.8878 11.6681V7.87696C22.8878 7.50097 22.5835 7.19666 22.2075 7.19666ZM11.4914 1.36059C12.1976 1.36059 12.7717 1.93479 12.7717 2.64046C12.7717 5.40037 12.7717 11.8042 12.7717 14.4414C11.964 14.0772 11.0239 14.0772 10.2116 14.4487C10.2116 14.2675 10.2116 3.39214 10.2116 2.64051C10.2116 1.93479 10.7857 1.36059 11.4914 1.36059ZM11.5 15.5299C12.7818 15.5299 13.6275 16.8662 13.0919 18.0193C12.8135 18.6198 12.2044 19.0375 11.5 19.0375C10.5315 19.0375 9.74625 18.2491 9.74625 17.2837C9.74625 16.3181 10.5314 15.5299 11.5 15.5299ZM1.4729 10.9878V8.55726H8.85096C8.85096 9.93286 8.85096 9.59805 8.85096 10.9878C8.0416 10.9878 2.2314 10.9878 1.4729 10.9878ZM19.3571 21.2943C19.3448 21.4879 19.1834 21.6394 18.9892 21.6394H4.01085C3.81674 21.6394 3.65529 21.4879 3.64303 21.2943L3.08065 12.3484H8.85096V15.6483C7.57621 17.7004 9.05553 20.3981 11.5 20.3981C13.2171 20.3981 14.6144 19.0008 14.6144 17.2837C14.6144 16.6728 14.4376 16.1023 14.1323 15.6211V12.3484H19.9194L19.3571 21.2943ZM14.1323 10.9878C14.1323 8.99996 14.1323 9.95577 14.1323 8.55726H21.5272V10.9878C20.7703 10.9878 14.9452 10.9878 14.1323 10.9878Z" fill="white"/>
</g>
<defs>
<clipPath id="clip0_2104_104">
<rect width="23" height="23" fill="white"/>
</clipPath>
</defs>
</svg>
