<svg width="20" height="20" viewBox="0 0 20 20" fill="none" xmlns="http://www.w3.org/2000/svg">
<path d="M9.99955 0C15.4353 0 19.9989 4.06578 19.9989 9.26362C19.9989 11.6089 19.0672 13.8166 17.3647 15.5298C18.457 17.3715 19.8452 19.0176 19.86 19.0351C20.2012 19.4377 19.8754 20.0529 19.3495 19.9964C19.2165 19.9819 16.1505 19.6315 13.4321 17.9665C6.97251 20.1553 0.000154495 15.7437 0.000154495 9.26362C0.000193557 4.06312 4.56683 0 9.99955 0Z" fill="#EC801C"/>
<path d="M0.000217194 9.26358C0.000217194 14.5979 4.72529 18.5307 9.99957 18.5334V0C4.56673 0 0.000217194 4.06324 0.000217194 9.26358Z" fill="#FFCA05"/>
</svg>
