<svg width="23" height="23" viewBox="0 0 23 23" fill="none" xmlns="http://www.w3.org/2000/svg">
<path d="M3.59375 21.5625H7.1875C7.37812 21.5625 7.56094 21.4868 7.69573 21.352C7.83052 21.2172 7.90625 21.0344 7.90625 20.8438C7.90625 20.6531 7.83052 20.4703 7.69573 20.3355C7.56094 20.2007 7.37812 20.125 7.1875 20.125H3.59375C3.40316 20.1249 3.22041 20.0491 3.08564 19.9144C2.95088 19.7796 2.87511 19.5968 2.875 19.4062V15.8125C2.875 15.6219 2.79927 15.4391 2.66448 15.3043C2.52969 15.1695 2.34687 15.0938 2.15625 15.0938C1.96563 15.0938 1.78281 15.1695 1.64802 15.3043C1.51323 15.4391 1.4375 15.6219 1.4375 15.8125V19.4062C1.43813 19.9779 1.66551 20.526 2.06974 20.9303C2.47398 21.3345 3.02207 21.5619 3.59375 21.5625Z" fill="white"/>
<path d="M19.4062 1.4375H15.8125C15.6219 1.4375 15.4391 1.51323 15.3043 1.64802C15.1695 1.78281 15.0938 1.96563 15.0938 2.15625C15.0938 2.34687 15.1695 2.52969 15.3043 2.66448C15.4391 2.79927 15.6219 2.875 15.8125 2.875H19.4062C19.5968 2.87511 19.7796 2.95088 19.9144 3.08564C20.0491 3.22041 20.1249 3.40316 20.125 3.59375V7.1875C20.125 7.37812 20.2007 7.56094 20.3355 7.69573C20.4703 7.83052 20.6531 7.90625 20.8438 7.90625C21.0344 7.90625 21.2172 7.83052 21.352 7.69573C21.4868 7.56094 21.5625 7.37812 21.5625 7.1875V3.59375C21.5619 3.02207 21.3345 2.47398 20.9303 2.06974C20.526 1.66551 19.9779 1.43813 19.4062 1.4375Z" fill="white"/>
<path d="M20.8438 15.0938C20.6531 15.0938 20.4703 15.1695 20.3355 15.3043C20.2007 15.4391 20.125 15.6219 20.125 15.8125V19.4062C20.1249 19.5968 20.0491 19.7796 19.9144 19.9144C19.7796 20.0491 19.5968 20.1249 19.4062 20.125H15.8125C15.6219 20.125 15.4391 20.2007 15.3043 20.3355C15.1695 20.4703 15.0938 20.6531 15.0938 20.8438C15.0938 21.0344 15.1695 21.2172 15.3043 21.352C15.4391 21.4868 15.6219 21.5625 15.8125 21.5625H19.4062C19.9779 21.5619 20.526 21.3345 20.9303 20.9303C21.3345 20.526 21.5619 19.9779 21.5625 19.4062V15.8125C21.5625 15.6219 21.4868 15.4391 21.352 15.3043C21.2172 15.1695 21.0344 15.0938 20.8438 15.0938Z" fill="white"/>
<path d="M2.15625 7.90625C2.34687 7.90625 2.52969 7.83052 2.66448 7.69573C2.79927 7.56094 2.875 7.37812 2.875 7.1875V3.59375C2.87511 3.40316 2.95088 3.22041 3.08564 3.08564C3.22041 2.95088 3.40316 2.87511 3.59375 2.875H7.1875C7.37812 2.875 7.56094 2.79927 7.69573 2.66448C7.83052 2.52969 7.90625 2.34687 7.90625 2.15625C7.90625 1.96563 7.83052 1.78281 7.69573 1.64802C7.56094 1.51323 7.37812 1.4375 7.1875 1.4375H3.59375C3.02207 1.43813 2.47398 1.66551 2.06974 2.06974C1.66551 2.47398 1.43813 3.02207 1.4375 3.59375V7.1875C1.4375 7.37812 1.51323 7.56094 1.64802 7.69573C1.78281 7.83052 1.96563 7.90625 2.15625 7.90625Z" fill="white"/>
<path d="M11.5 7.90625C11.3094 7.90625 11.1266 7.98198 10.9918 8.11677C10.857 8.25156 10.7812 8.43438 10.7812 8.625V10.7812H10.0625C9.87188 10.7812 9.68906 10.857 9.55427 10.9918C9.41948 11.1266 9.34375 11.3094 9.34375 11.5C9.34375 11.6906 9.41948 11.8734 9.55427 12.0082C9.68906 12.143 9.87188 12.2188 10.0625 12.2188H11.5C11.6906 12.2188 11.8734 12.143 12.0082 12.0082C12.143 11.8734 12.2188 11.6906 12.2188 11.5V8.625C12.2188 8.43438 12.143 8.25156 12.0082 8.11677C11.8734 7.98198 11.6906 7.90625 11.5 7.90625Z" fill="white"/>
<path d="M6.46875 9.34375C7.26266 9.34375 7.90625 8.70016 7.90625 7.90625C7.90625 7.11234 7.26266 6.46875 6.46875 6.46875C5.67484 6.46875 5.03125 7.11234 5.03125 7.90625C5.03125 8.70016 5.67484 9.34375 6.46875 9.34375Z" fill="white"/>
<path d="M16.5312 9.34375C17.3252 9.34375 17.9688 8.70016 17.9688 7.90625C17.9688 7.11234 17.3252 6.46875 16.5312 6.46875C15.7373 6.46875 15.0938 7.11234 15.0938 7.90625C15.0938 8.70016 15.7373 9.34375 16.5312 9.34375Z" fill="white"/>
<path d="M11.5 16.5312C10.6786 16.5293 9.87466 16.2937 9.18205 15.8521C8.48943 15.4105 7.93667 14.7811 7.58828 14.0372C7.55015 13.949 7.49474 13.8694 7.42533 13.803C7.35591 13.7366 7.27389 13.6849 7.18411 13.6507C7.09434 13.6166 6.99863 13.6008 6.90265 13.6042C6.80666 13.6077 6.71235 13.6304 6.62527 13.6709C6.53819 13.7114 6.46012 13.769 6.39567 13.8402C6.33123 13.9114 6.2817 13.9948 6.25003 14.0855C6.21836 14.1762 6.20519 14.2723 6.21129 14.3682C6.21739 14.464 6.24264 14.5577 6.28555 14.6436C6.75519 15.6527 7.5075 16.5038 8.45126 17.0938C9.39502 17.6838 10.4897 17.9873 11.6025 17.9675C12.7153 17.9477 13.7985 17.6055 14.7207 16.9823C15.6429 16.3592 16.3645 15.4818 16.798 14.4567C16.836 14.3696 16.8563 14.2758 16.8578 14.1808C16.8593 14.0858 16.8419 13.9914 16.8067 13.9031C16.7714 13.8148 16.719 13.7344 16.6525 13.6665C16.586 13.5987 16.5067 13.5446 16.4192 13.5076C16.3317 13.4706 16.2377 13.4513 16.1426 13.4508C16.0476 13.4503 15.9534 13.4687 15.8655 13.5049C15.7776 13.5411 15.6978 13.5943 15.6306 13.6616C15.5634 13.7288 15.5103 13.8087 15.4742 13.8966C15.1448 14.6783 14.592 15.3453 13.8849 15.814C13.1779 16.2828 12.3483 16.5323 11.5 16.5312Z" fill="white"/>
</svg>
