<svg width="51" height="32" viewBox="0 0 51 32" fill="none" xmlns="http://www.w3.org/2000/svg">
<g clip-path="url(#clip0_165_363)">
<path d="M7.70506 28.6562H3.55622C3.05594 28.6562 2.75413 28.3771 2.61877 28.2106C2.3851 27.9231 2.29457 27.5491 2.37057 27.1841C3.5875 21.3387 8.7461 17.0699 14.7013 16.9313C14.8005 16.935 14.9 16.9375 15 16.9375C15.1009 16.9375 15.2012 16.935 15.3013 16.9312C16.7575 16.9645 18.1799 17.2383 19.5339 17.7467C20.1397 17.9743 20.8154 17.6675 21.0429 17.0615C21.2704 16.4557 20.9637 15.78 20.3577 15.5525C20.1637 15.4796 19.9684 15.4114 19.7721 15.3467C21.7116 13.8919 22.9687 11.5744 22.9687 8.96875C22.9687 4.5748 19.394 1 15 1C10.606 1 7.03124 4.5748 7.03124 8.96875C7.03124 11.5767 8.29053 13.896 10.233 15.3507C8.45342 15.9365 6.7835 16.8475 5.32206 18.0496C2.64245 20.2537 0.77934 23.3281 0.0760394 26.7064C-0.14439 27.765 0.119633 28.8522 0.800434 29.6893C1.47778 30.5223 2.48225 31 3.55622 31H7.70506C8.35229 31 8.87694 30.4754 8.87694 29.8281C8.87694 29.1809 8.35229 28.6562 7.70506 28.6562ZM9.37499 8.96875C9.37499 5.86709 11.8983 3.34375 15 3.34375C18.1016 3.34375 20.625 5.86709 20.625 8.96875C20.625 11.9785 18.2488 14.4436 15.2739 14.587C15.1826 14.5854 15.0914 14.584 15 14.584C14.9083 14.584 14.8168 14.5853 14.7252 14.587C11.7507 14.4432 9.37499 11.9782 9.37499 8.96875Z" fill="#E4B401"/>
<path d="M29.1029 21.1918C28.6013 20.0697 27.4714 19.3427 26.2215 19.3398H22.5669C22.5642 19.3398 22.5618 19.3398 22.5591 19.3398C21.2407 19.3398 20.0905 20.1168 19.6277 21.3207C19.5661 21.4809 19.4908 21.6827 19.4123 21.918H11.7396C11.4228 21.918 11.1195 22.0462 10.8988 22.2735L8.88577 24.347C8.44239 24.8037 8.44462 25.5308 8.89075 25.9847L10.9415 28.0714C11.1618 28.2955 11.463 28.4218 11.7773 28.4218H15.5859C16.2331 28.4218 16.7578 27.8972 16.7578 27.2499C16.7578 26.6027 16.2331 26.0781 15.5859 26.0781H12.2687L11.3647 25.1583L12.2352 24.2617H20.2913C20.8312 24.2617 21.3012 23.8929 21.4296 23.3685C21.5244 22.9814 21.6433 22.6092 21.8154 22.1617C21.9288 21.8666 22.2137 21.6836 22.5619 21.6836C22.5627 21.6836 22.5634 21.6836 22.5642 21.6836H26.2187C26.5501 21.6844 26.8354 21.8625 26.9632 22.1484C27.2778 22.8522 27.6534 23.9418 27.6562 25.1358C27.659 26.3387 27.2838 27.4533 26.9684 28.1765C26.8412 28.4682 26.5536 28.6562 26.2324 28.6562C26.2318 28.6562 26.2312 28.6562 26.2305 28.6562H22.5318C22.2076 28.6555 21.9039 28.4469 21.7762 28.1372C21.6391 27.8049 21.5203 27.4255 21.4131 26.9772C21.2624 26.3478 20.6298 25.9597 20.0007 26.1103C19.3712 26.2609 18.9831 26.8933 19.1337 27.5228C19.2697 28.0911 19.4254 28.5844 19.6095 29.0308C20.1017 30.224 21.2466 30.997 22.5291 30.9999H26.2278C26.2303 30.9999 26.2327 30.9999 26.2352 30.9999C27.4862 30.9999 28.6169 30.2599 29.1168 29.1132C29.5218 28.1844 30.0038 26.7395 30 25.1303C29.9962 23.5254 29.5101 22.1027 29.1029 21.1918Z" fill="#E4B401"/>
<path d="M25.2539 26.3125C25.9011 26.3125 26.4258 25.7878 26.4258 25.1406C26.4258 24.4934 25.9011 23.9688 25.2539 23.9688C24.6067 23.9688 24.082 24.4934 24.082 25.1406C24.082 25.7878 24.6067 26.3125 25.2539 26.3125Z" fill="#E4B401"/>
</g>
<path d="M50 1V31" stroke="#FFCA05" stroke-width="2" stroke-linecap="round"/>
<defs>
<clipPath id="clip0_165_363">
<rect width="30" height="30" fill="white" transform="translate(0 1)"/>
</clipPath>
</defs>
</svg>
