<svg width="51" height="32" viewBox="0 0 51 32" fill="none" xmlns="http://www.w3.org/2000/svg">
<path d="M27.2449 9.57147H2.75508C1.23592 9.57147 0 10.8073 0 12.3266V19.6735C0 21.1927 1.23592 22.4286 2.75508 22.4286H27.2449C28.7641 22.4286 30 21.1927 30 19.6735V12.3266C30 10.8073 28.7641 9.57147 27.2449 9.57147ZM28.1633 19.6735C28.1633 20.1799 27.7513 20.5918 27.2449 20.5918H2.75508C2.24871 20.5918 1.83668 20.1799 1.83668 19.6735V12.3266C1.83668 11.8202 2.24865 11.4082 2.75508 11.4082H27.2449C27.7513 11.4082 28.1633 11.8202 28.1633 12.3266V19.6735Z" fill="#E4B401"/>
<path d="M18.1103 15.2647L17.1919 13.6741L15.9184 14.4094V12.9388H14.0817V14.4094L12.8081 13.6741L11.8897 15.2647L13.1632 16L11.8896 16.7353L12.808 18.326L14.0817 17.5906V19.0612H15.9184V17.5906L17.1919 18.326L18.1103 16.7353L16.8367 16L18.1103 15.2647Z" fill="#E4B401"/>
<path d="M26.2714 15.2647L25.353 13.6741L24.0795 14.4094V12.9388H22.2428V14.4094L20.9692 13.6741L20.0508 15.2647L21.3244 16L20.0508 16.7353L20.9692 18.326L22.2428 17.5906V19.0612H24.0795V17.5906L25.353 18.326L26.2714 16.7353L24.9979 16L26.2714 15.2647Z" fill="#E4B401"/>
<path d="M9.94918 15.2647L9.03078 13.6741L7.75725 14.4094V12.9388H5.92057V14.4094L4.64697 13.6741L3.72857 15.2647L5.00211 16L3.72852 16.7353L4.64691 18.326L5.92057 17.5906V19.0612H7.75725V17.5906L9.03078 18.326L9.94918 16.7353L8.67559 16L9.94918 15.2647Z" fill="#E4B401"/>
<path d="M50 1V31" stroke="#FFCA05" stroke-width="2" stroke-linecap="round"/>
</svg>
