<svg width="51" height="32" viewBox="0 0 51 32" fill="none" xmlns="http://www.w3.org/2000/svg">
<g clip-path="url(#clip0_158_296)">
<path d="M3.25063 2.3453C3.18307 2.41752 3.06893 2.56836 2.99263 2.67202C1.57452 4.55256 -0.120234 7.44353 0.00672691 10.2338C0.222211 14.9057 6.52715 21.1151 8.45486 22.9071C10.3831 24.6985 17.0364 30.5335 21.7071 30.4065C22.4858 30.3873 23.311 30.2237 24.159 29.9197C26.1164 29.2179 27.8833 27.883 29.0056 26.9005C29.0056 26.9005 29.2473 26.695 29.3405 26.596C29.5752 26.3426 29.761 25.9728 29.9083 25.4655C29.9834 25.2064 29.9997 24.9332 29.9997 24.7504C29.9997 24.5465 29.9794 24.1517 29.8454 23.7923C29.662 23.3008 29.4517 22.949 29.2001 22.7126C29.0138 22.5396 24.8025 19.2404 24.7757 19.2218L24.7437 19.2008C24.5154 19.0255 24.2772 18.8886 24.0349 18.7937C23.4001 18.545 22.6972 18.5351 22.0548 18.7646C21.6465 18.9108 21.2791 19.1525 20.9954 19.4588L19.5482 21.0079C19.4125 21.1535 19.1603 21.3044 19.0712 21.3259C18.9775 21.3434 18.9122 21.3481 18.8703 21.3492L9.15722 12.3228C9.13392 12.3007 9.12227 12.2791 9.11587 12.264C9.12053 12.25 9.12635 12.2378 9.12926 12.2284C9.16479 12.1562 9.33252 11.9268 9.54218 11.6996L10.9743 10.1493C11.732 9.33455 11.9201 8.06727 11.4378 7.07896C11.266 6.72661 11.0308 6.46337 10.9219 6.33932L10.8654 6.26944C10.8374 6.23741 7.29183 2.34647 7.13283 2.20029C6.73856 1.83397 6.11773 1.63595 5.23541 1.59402C4.74504 1.57073 4.13004 1.71516 3.77303 1.93705C3.54357 2.0809 3.37177 2.21485 3.25063 2.3453ZM5.92554 3.46524C6.12414 3.66674 9.35115 7.20126 9.52004 7.38646L9.63885 7.53031C9.68719 7.58447 9.80076 7.71201 9.86715 7.84713C10.0395 8.20122 9.97198 8.66247 9.69243 8.96357L8.25859 10.5156C8.09086 10.6968 7.68319 11.1603 7.52129 11.5465C7.41413 11.8039 7.36346 12.0281 7.36288 12.2884C7.38035 12.7858 7.59117 13.2494 7.96274 13.5994L17.7737 22.7167C18.147 23.0632 18.6898 23.1738 19.3875 23.0451C19.9267 22.9455 20.5109 22.5379 20.8254 22.2013L22.2749 20.6492C22.3716 20.5449 22.4997 20.4622 22.6442 20.4098C22.8853 20.3236 23.1602 20.3277 23.3978 20.4209C23.5364 20.4751 23.6517 20.5653 23.6896 20.595C23.7257 20.623 23.7548 20.6434 23.781 20.6597C24.1846 20.9724 27.8059 23.8185 28.0021 23.9839C28.0027 23.9851 28.0883 24.0812 28.2089 24.4033C28.2258 24.4487 28.2526 24.5826 28.2526 24.7498C28.2526 24.8703 28.2392 24.949 28.2304 24.9775C28.1396 25.2897 28.0645 25.3992 28.0645 25.4015C28.008 25.458 27.8903 25.5552 27.8705 25.5721C26.8461 26.4684 25.269 27.6652 23.569 28.2744C22.8969 28.5155 22.2563 28.6448 21.6623 28.6594C18.4714 28.7461 13.1938 24.9245 9.64468 21.6264C6.09502 18.329 1.89891 13.3443 1.75215 10.1534C1.64499 7.85295 3.14114 5.37722 4.37289 3.74304L4.42007 3.68014C4.44744 3.64287 4.49694 3.57298 4.52257 3.5427C4.56625 3.50135 4.63147 3.46116 4.68331 3.42855C4.76076 3.38894 5.00129 3.33304 5.15155 3.34061C5.66754 3.36565 5.90632 3.45825 5.92554 3.46524Z" fill="#E4B401"/>
</g>
<path d="M50 1V31" stroke="#FFCA05" stroke-width="2" stroke-linecap="round"/>
<defs>
<clipPath id="clip0_158_296">
<rect width="30" height="30" fill="white" transform="translate(0 31) rotate(-90)"/>
</clipPath>
</defs>
</svg>
