<svg width="51" height="32" viewBox="0 0 51 32" fill="none" xmlns="http://www.w3.org/2000/svg">
<g clip-path="url(#clip0_158_295)">
<path d="M15 15.2031C11.2617 15.2031 8.2207 12.1621 8.2207 8.42383C8.2207 4.68555 11.2617 1.64453 15 1.64453C18.7383 1.64453 21.7793 4.68555 21.7793 8.42383C21.7793 12.1621 18.7383 15.2031 15 15.2031ZM15 4.03516C12.5801 4.03516 10.6113 6.00391 10.6113 8.42383C10.6113 10.8437 12.5801 12.8125 15 12.8125C17.4199 12.8125 19.3887 10.8437 19.3887 8.42383C19.3887 6.00391 17.4199 4.03516 15 4.03516Z" fill="#E4B401"/>
<path d="M28.1602 30.3555H1.83984C1.17773 30.3555 0.644531 29.8223 0.644531 29.1602C0.644531 25.252 2.16797 21.5898 4.92773 18.8477C6.70898 17.0781 9.22266 16.0645 11.8184 16.0645H18.1816C20.7832 16.0645 23.291 17.0781 25.0723 18.8477C27.832 21.5898 29.3555 25.252 29.3555 29.1602C29.3555 29.8223 28.8223 30.3555 28.1602 30.3555ZM3.09375 27.9648H26.9063C26.6367 25.1523 25.4063 22.5508 23.3848 20.5469C22.0488 19.2227 20.1504 18.4609 18.1816 18.4609H11.8184C9.84375 18.4609 7.95117 19.2227 6.61523 20.5469C4.59375 22.5508 3.36328 25.1523 3.09375 27.9648Z" fill="#E4B401"/>
</g>
<path d="M50 1V31" stroke="#FFCA05" stroke-width="2" stroke-linecap="round"/>
<defs>
<clipPath id="clip0_158_295">
<rect width="30" height="30" fill="white" transform="translate(0 1)"/>
</clipPath>
</defs>
</svg>
