<svg width="400" height="400" viewBox="0 0 400 400" fill="none" xmlns="http://www.w3.org/2000/svg">
<rect width="400" height="400" fill="#E1E1E1"/>
<path d="M200 193.891C171.34 193.891 148.025 170.576 148.025 141.916C148.025 113.256 171.34 89.9414 200 89.9414C228.66 89.9414 251.975 113.256 251.975 141.916C251.975 170.576 228.66 193.891 200 193.891ZM200 108.27C181.447 108.27 166.354 123.363 166.354 141.916C166.354 160.469 181.447 175.562 200 175.562C218.553 175.562 233.646 160.469 233.646 141.916C233.646 123.363 218.553 108.27 200 108.27Z" fill="white"/>
<path d="M300.895 310.059H99.1055C94.0293 310.059 89.9414 305.971 89.9414 300.895C89.9414 270.932 101.621 242.855 122.779 221.832C136.436 208.266 155.707 200.494 175.607 200.494H224.393C244.338 200.494 263.564 208.266 277.221 221.832C298.379 242.855 310.059 270.932 310.059 300.895C310.059 305.971 305.971 310.059 300.895 310.059ZM108.719 291.73H291.281C289.215 270.168 279.781 250.223 264.283 234.859C254.041 224.707 239.486 218.867 224.393 218.867H175.607C160.469 218.867 145.959 224.707 135.717 234.859C120.219 250.223 110.785 270.168 108.719 291.73Z" fill="white"/>
</svg>
